<?xml version="1.0" encoding="UTF-8"?>
<svg width="363px" height="86px" viewBox="0 0 363 86" version="1.1" xmlns="http://www.w3.org/2000/svg" xmlns:xlink="http://www.w3.org/1999/xlink">
    <!-- Generator: Sketch 54.1 (76490) - https://sketchapp.com -->
    <title>Group</title>
    <desc>Created with Sketch.</desc>
    <defs>
        <linearGradient x1="87.3903547%" y1="9.43474265%" x2="17.2465398%" y2="85.0551471%" id="linearGradient-1">
            <stop stop-color="#FFD400" offset="0%"></stop>
            <stop stop-color="#95C842" offset="35.1551718%"></stop>
            <stop stop-color="#57A946" offset="59.3431012%"></stop>
            <stop stop-color="#3EB7E9" offset="100%"></stop>
        </linearGradient>
        <linearGradient x1="1.23961344%" y1="50%" x2="100%" y2="50%" id="linearGradient-2">
            <stop stop-color="#57A946" offset="0%"></stop>
            <stop stop-color="#95C842" offset="100%"></stop>
        </linearGradient>
    </defs>
    <g id="LOGOs" stroke="none" stroke-width="1" fill="none" fill-rule="evenodd">
        <g id="Logo-Final" transform="translate(-68.000000, -207.000000)">
            <g id="Group" transform="translate(68.500000, 207.000000)">
                <g id="Group-2">
                    <rect id="Rectangle-5" fill="url(#linearGradient-1)" fill-rule="nonzero" x="0" y="0.749971775" width="84" height="85" rx="42"></rect>
                    <g id="Group-16" transform="translate(7.000000, 17.500000)" fill="#FFFFFF">
                        <g id="Group-7" transform="translate(14.946167, 0.329209)">
                            <path d="M12.5209545,36.2269121 C10.5803127,36.2269121 9.00231218,37.8049126 9.00231218,39.7455544 C9.00231218,41.6854095 10.5803127,43.2649833 12.5209545,43.2649833 C14.4615962,43.2649833 16.04117,41.6854095 16.04117,39.7455544 C16.04117,37.8049126 14.4615962,36.2269121 12.5209545,36.2269121" id="Fill-1"></path>
                            <path d="M34.2818652,36.2269121 C32.3404368,36.3559211 30.8914452,38.0629307 31.0204543,39.9791866 C31.1518232,41.8152051 32.6771188,43.2649833 34.5139241,43.2649833 L34.7727287,43.2649833 C35.7056842,43.1871059 36.5584023,42.7733331 37.1806349,42.0480507 C37.8005074,41.3495141 38.0844846,40.444091 38.033353,39.4875363 C37.9035573,37.5712805 36.2232935,36.0963298 34.2818652,36.2269121" id="Fill-3"></path>
                            <path d="M41.8632689,8.91806299 C41.5792917,8.47833104 41.0876415,8.21952636 40.5692455,8.21952636 L19.041259,8.21952636 C18.1869676,8.21952636 17.488431,8.91806299 17.488431,9.77235442 C17.488431,10.6266458 18.1869676,11.3251825 19.041259,11.3251825 L38.1888718,11.3251825 L32.4448239,24.5210744 L16.7434825,24.5210744 L15.1607622,24.5210744 L14.4543591,21.9668531 L8.82122757,1.59601461 C8.64030029,0.923437108 8.01964105,0.45774602 7.32031778,0.45774602 L1.70527895,0.45774602 C0.851774172,0.45774602 0.15323754,1.15628265 0.15323754,2.00978743 C0.15323754,2.86329221 0.851774172,3.56261549 1.70527895,3.56261549 L6.15530342,3.56261549 L12.4924781,26.4782355 L10.1561562,31.8509891 C9.94926983,32.3426394 10.0011881,32.8846346 10.2851653,33.3259398 C10.5699291,33.7656718 11.0615793,34.0236898 11.5791886,34.0236898 L37.0403769,34.0236898 C37.8946683,34.0236898 38.5939916,33.3259398 38.5939916,32.4716484 C38.5939916,31.617357 37.8946683,30.9180337 37.0403769,30.9180337 L13.9595623,30.9180337 L15.3928211,27.6259438 L33.479256,27.6259438 C34.1014885,27.6259438 34.6426971,27.2633026 34.903075,26.693775 L41.9922779,10.3930137 C42.1999509,9.90136343 42.147246,9.35779495 41.8632689,8.91806299" id="Fill-5"></path>
                        </g>
                        <path d="M22.6928994,27.8063205 L0.18003919,27.8063205 C-0.47129902,27.8063205 -0.999921336,27.2776981 -0.999921336,26.6263599 C-0.999921336,25.9750217 -0.47129902,25.4463994 0.18003919,25.4463994 L22.6928994,25.4463994 C23.3442376,25.4463994 23.8728599,25.9750217 23.8728599,26.6263599 C23.8728599,27.2776981 23.3442376,27.8063205 22.6928994,27.8063205" id="Fill-8"></path>
                        <path d="M18.7596976,19.6935184 L4.8998813,19.6935184 C4.24854309,19.6935184 3.71992077,19.1648961 3.71992077,18.5135579 C3.71992077,17.8622197 4.24854309,17.3335973 4.8998813,17.3335973 L18.7596976,17.3335973 C19.4110359,17.3335973 19.9396582,17.8622197 19.9396582,18.5135579 C19.9396582,19.1648961 19.4110359,19.6935184 18.7596976,19.6935184" id="Fill-12"></path>
                        <path d="M17.1864169,11.5807163 L11.1930041,11.5807163 C10.5416659,11.5807163 10.0130436,11.0528807 10.0130436,10.4007558 C10.0130436,9.74863097 10.5416659,9.22079529 11.1930041,9.22079529 L17.1864169,9.22079529 C17.8377551,9.22079529 18.3663775,9.74863097 18.3663775,10.4007558 C18.3663775,11.0528807 17.8377551,11.5807163 17.1864169,11.5807163" id="Fill-14"></path>
                    </g>
                </g>
                <g id="Group-3" transform="translate(107.832183, 17.749972)" fill="url(#linearGradient-2)">
                    <path d="M145.243268,0.720198714 C131.578447,0.720198714 120.462903,11.8374369 120.462903,25.5005645 L120.462903,25.5005645 C120.462903,39.1625631 131.578447,50.2798013 145.243268,50.2798013 L145.243268,50.2798013 C153.268747,50.2798013 160.833595,46.3604865 165.478855,39.7964951 L165.478855,39.7964951 C166.900827,37.7857506 166.425519,35.0050298 164.414775,33.5819285 L164.414775,33.5819285 C162.405724,32.1605207 159.624438,32.6358286 158.202466,34.6471376 L158.202466,34.6471376 C155.2253,38.8543467 150.380207,41.3646727 145.243268,41.3646727 L145.243268,41.3646727 C136.494667,41.3646727 129.378031,34.248037 129.378031,25.5005645 L129.378031,25.5005645 C129.378031,16.751963 136.494667,9.63532735 145.243268,9.63532735 L145.243268,9.63532735 C150.380207,9.63532735 155.2253,12.1467823 158.202466,16.3545559 L158.202466,16.3545559 C159.623309,18.3641714 162.405724,18.8400438 164.414775,17.4180715 L164.414775,17.4180715 C166.425519,15.9955347 166.900827,13.2148139 165.478855,11.2040694 L165.478855,11.2040694 C160.833595,4.63951348 153.268747,0.720198714 145.243268,0.720198714 Z M231.419082,5.32199246 C231.419082,5.34344341 231.421904,5.36376537 231.422469,5.38465182 L231.422469,5.38465182 C231.42134,5.38690982 231.419646,5.38747431 231.419082,5.39086131 L231.419082,5.39086131 L231.419082,34.3174704 C231.419082,38.2870255 233.061773,42.0087657 236.348285,45.479304 L236.348285,45.479304 C239.773099,48.5377582 243.356537,50.0669853 247.101421,50.0669853 L247.101421,50.0669853 L250.283501,50.0669853 C250.333177,50.0669853 250.367611,50.0500503 250.389627,50.0229544 L250.389627,50.0229544 C252.522303,49.7344955 254.167817,47.9106001 254.167817,45.7005875 L254.167817,45.7005875 C254.167817,43.2896134 252.212958,41.3358832 249.801419,41.3358832 L249.801419,41.3358832 C249.54683,41.3358832 249.297886,41.3624147 249.055152,41.4041876 L249.055152,41.4041876 L248.435896,41.4041876 C245.30688,41.4041876 242.992435,40.2853511 241.484094,38.0482425 L241.484094,38.0482425 C240.548156,36.9536795 240.080751,35.0360773 240.080751,32.2965649 L240.080751,32.2965649 L240.080751,26.0650632 L241.897872,26.0650632 C241.909162,26.0650632 241.913678,26.0582893 241.924403,26.0565958 L241.924403,26.0565958 C244.264815,25.966276 246.134435,24.0464157 246.134435,21.6828595 L246.134435,21.6828595 C246.134435,19.3170453 244.25917,17.3954916 241.914242,17.3096877 L241.914242,17.3096877 C241.907468,17.3074298 241.90521,17.3029138 241.897872,17.3012203 L241.897872,17.3012203 L240.080751,17.3012203 L240.080751,5.39086131 C240.080751,5.38690982 240.077928,5.38578082 240.077364,5.38295832 L240.077364,5.38295832 C240.077928,5.36263637 240.080751,5.34231442 240.080751,5.32199246 L240.080751,5.32199246 C240.080751,2.93077579 238.140004,0.990593612 235.750481,0.990593612 L235.750481,0.990593612 C233.357571,0.990593612 231.419082,2.93077579 231.419082,5.32199246 L231.419082,5.32199246 Z M23.794751,1.00244809 C20.4850949,1.00244809 17.0032666,1.88250162 13.3532177,3.63865721 L13.3532177,3.63865721 C11.2521534,4.64459397 8.94730506,6.39058858 6.43641466,8.87777004 L6.43641466,8.87777004 C2.14565972,13.9232598 0,19.229548 0,24.7988926 L0,24.7988926 L0,26.2694118 C0,30.1046162 1.08270859,33.9290952 3.25207725,37.7405907 L3.25207725,37.7405907 C3.77706108,39.0191804 5.2944337,40.9593626 7.80645311,43.5617018 L7.80645311,43.5617018 C12.8282339,47.8987456 18.1576665,50.0669853 23.794751,50.0669853 L23.794751,50.0669853 L25.4035724,50.0669853 C29.6028785,50.0669853 33.895327,48.6856568 38.2780952,45.923 L38.2780952,45.923 C40.6969723,44.2577287 42.8206166,42.1803733 44.6462055,39.6920629 L44.6462055,39.6920629 C47.5911955,35.1958304 49.0634082,30.7673378 49.0634082,26.4082785 L49.0634082,26.4082785 L49.0634082,24.7988926 C49.0634082,20.9631236 47.9778771,17.1414671 45.8102019,13.3288426 L45.8102019,13.3288426 C45.2846536,12.050253 43.767281,10.1106353 41.2569551,7.50886059 L41.2569551,7.50886059 C36.2351743,3.17125225 30.9046126,1.00244809 25.2669637,1.00244809 L25.2669637,1.00244809 L23.794751,1.00244809 Z M12.4607452,35.823553 C9.97469277,32.695101 8.72997305,29.4672972 8.72997305,26.1344966 L8.72997305,26.1344966 L8.72997305,25.8595857 C8.72997305,25.746686 8.7068286,25.6541082 8.6616687,25.5858038 L8.6616687,25.5858038 C8.7068286,25.4949195 8.72997305,25.3927452 8.72997305,25.278152 L8.72997305,25.278152 L8.72997305,24.9355013 C8.72997305,21.0551369 10.3399235,17.4372645 13.5575663,14.0818839 L13.5575663,14.0818839 C16.821498,11.1843119 20.2801818,9.73355013 23.9324887,9.73355013 L23.9324887,9.73355013 L24.4106191,9.73355013 L24.5816622,9.66524578 C24.5816622,9.71153468 24.6053712,9.73355013 24.6505311,9.73355013 L24.6505311,9.73355013 L25.130355,9.73355013 C28.280258,9.73355013 31.3731466,10.8648056 34.4078918,13.1228006 L34.4078918,13.1228006 C38.4022849,16.5701944 40.4006105,20.7237761 40.4006105,25.5858038 L40.4006105,25.5858038 C40.4006105,28.6222425 39.487816,31.5898124 37.6616626,34.487949 L37.6616626,34.487949 C34.1465289,39.0993392 29.7530352,41.4041876 24.478359,41.4041876 L24.478359,41.4041876 C19.8929357,41.4041876 15.8866881,39.5430352 12.4607452,35.823553 L12.4607452,35.823553 Z M219.7142,16.7180931 C216.086167,16.7180931 212.536034,18.1558714 209.066061,21.032557 L209.066061,21.032557 C205.482623,24.6837348 203.690904,28.5883726 203.690904,32.7419544 L203.690904,32.7419544 L203.690904,45.6328476 C203.690904,45.6339766 203.691468,45.6339766 203.691468,45.6345411 L203.691468,45.6345411 C203.691468,45.6396216 203.690904,45.6441376 203.690904,45.6486536 L203.690904,45.6486536 C203.690904,45.6582501 203.692597,45.6661531 203.692597,45.6746205 L203.692597,45.6746205 C203.692597,45.684217 203.690904,45.69212 203.690904,45.7005875 L203.690904,45.7005875 C203.690904,48.1109971 205.645763,50.0669853 208.056172,50.0669853 L208.056172,50.0669853 C208.065204,50.0669853 208.073672,50.0658563 208.082139,50.0658563 L208.082139,50.0658563 C208.091171,50.0658563 208.099639,50.0669853 208.108106,50.0669853 L208.108106,50.0669853 C210.547305,50.0669853 212.524744,48.0889817 212.524744,45.6486536 L212.524744,45.6486536 C212.524744,45.6441376 212.52418,45.6396216 212.52418,45.6345411 L212.52418,45.6345411 C212.52418,45.6339766 212.524744,45.6339766 212.524744,45.6328476 L212.524744,45.6328476 L212.524744,34.7967298 C212.524744,32.5601858 212.786107,30.9609608 213.311656,30.0030065 L213.311656,30.0030065 C213.745191,29.0219077 214.419202,28.176853 215.333126,27.4689716 L215.333126,27.4689716 C216.496558,26.1909465 218.641088,25.5524984 221.770105,25.5524984 L221.770105,25.5524984 L226.061424,25.5524984 C226.092472,25.5524984 226.107149,25.5395149 226.128035,25.5304829 L226.128035,25.5304829 C228.361757,25.3091994 230.106058,23.4260316 230.106058,21.1347312 L230.106058,21.1347312 C230.106058,18.8349634 228.347644,16.9495376 226.104326,16.7401085 L226.104326,16.7401085 C226.089085,16.7322055 226.079488,16.7237381 226.061424,16.7180931 L226.061424,16.7180931 L219.7142,16.7180931 Z M101.813558,17.0613083 C98.1855242,17.0613083 94.6574071,18.4883611 91.2342867,21.3396443 L91.2342867,21.3396443 C87.6960086,24.9462267 85.9268695,28.8164301 85.9268695,32.9468674 L85.9268695,32.9468674 L85.9268695,33.4949957 C85.9268695,37.0106939 86.9548217,40.2289012 89.0079037,43.1507467 L89.0079037,43.1507467 C92.5907772,47.7604434 97.0198343,50.0669853 102.292817,50.0669853 L102.292817,50.0669853 L114.85743,50.0669853 C114.881139,50.0669853 114.890736,50.0545663 114.909364,50.0483568 L114.909364,50.0483568 C117.16002,49.8739267 118.933675,47.9964039 118.933675,45.7005875 L118.933675,45.7005875 C118.933675,43.4053356 117.158327,41.5266838 114.90767,41.3522537 L114.90767,41.3522537 C114.890736,41.3483022 114.88001,41.3358832 114.85743,41.3358832 L114.85743,41.3358832 L114.571229,41.3358832 L114.567842,41.3358832 L114.563326,41.3358832 L111.229397,41.3358832 L105.023862,41.3358832 L112.795881,33.5627355 L118.089185,28.2705598 C117.386384,26.2214294 116.241016,24.2767312 114.653646,22.4359008 L114.653646,22.4359008 C114.12584,21.904143 113.592388,21.4158516 113.048776,20.9619946 L113.048776,20.9619946 C109.948549,18.3641714 106.592039,17.0613083 102.97699,17.0613083 L102.97699,17.0613083 L101.813558,17.0613083 Z M94.5874092,33.5333816 C94.5874092,29.2172242 98.0861724,25.718461 102.403459,25.718461 L102.403459,25.718461 C104.069859,25.718461 105.611505,26.2417513 106.879934,27.1314014 L106.879934,27.1314014 L96.0026076,38.0098566 C95.1123931,36.7408635 94.5874092,35.2003464 94.5874092,33.5333816 L94.5874092,33.5333816 Z M67.1347064,17.0613083 C63.4835285,17.0613083 59.9339605,18.5109411 56.4871311,21.4085131 L56.4871311,21.4085131 C52.9957064,24.9925156 51.2485828,28.86159 51.2485828,33.0163008 L51.2485828,33.0163008 L51.2485828,45.6836525 C51.2485828,45.684217 51.2497118,45.684217 51.2497118,45.685346 L51.2497118,45.685346 C51.2497118,45.6904265 51.2485828,45.6960715 51.2485828,45.7005875 L51.2485828,45.7005875 C51.2485828,48.1109971 53.2040065,50.0669853 55.6138516,50.0669853 L55.6138516,50.0669853 C58.0253902,50.0669853 59.9791204,48.1109971 59.9791204,45.7005875 L59.9791204,45.7005875 C59.9791204,45.6960715 59.9779914,45.690991 59.9779914,45.685346 L59.9779914,45.685346 C59.9779914,45.684217 59.9791204,45.684217 59.9791204,45.6836525 L59.9791204,45.6836525 L59.9791204,35.1043816 C59.9791204,32.6380866 60.2879012,30.9158009 60.9037693,29.9347021 L60.9037693,29.9347021 C62.6164585,27.2183342 64.7609892,25.8595857 67.3407485,25.8595857 L67.3407485,25.8595857 L67.6150948,25.8595857 L67.7528325,25.7918458 C67.7528325,25.8381347 67.7754125,25.8595857 67.8194434,25.8595857 L67.8194434,25.8595857 L68.1620941,25.8595857 C69.0765821,25.8595857 70.1028408,26.1226421 71.2436928,26.6476259 L71.2436928,26.6476259 C74.0515095,28.3366062 75.4554179,30.5731502 75.4554179,33.358387 L75.4554179,33.358387 L75.4554179,45.6836525 C75.4554179,45.684217 75.4565469,45.684217 75.4565469,45.685346 L75.4565469,45.685346 C75.4565469,45.6904265 75.4554179,45.6960715 75.4554179,45.7005875 L75.4554179,45.7005875 C75.4554179,48.1307546 77.426083,50.0997262 79.8562501,50.0997262 L79.8562501,50.0997262 C82.2847237,50.0997262 84.2536953,48.1307546 84.2536953,45.7005875 L84.2536953,45.7005875 C84.2536953,45.6960715 84.2520018,45.690991 84.2520018,45.685346 L84.2520018,45.685346 C84.2520018,45.684217 84.2536953,45.684217 84.2536953,45.6836525 L84.2536953,45.6836525 L84.2536953,33.358387 C84.2536953,29.3865738 82.8289004,25.746686 79.9742303,22.4359008 L79.9742303,22.4359008 C76.4365167,18.8524628 72.5454269,17.0613083 68.2992673,17.0613083 L68.2992673,17.0613083 L67.1347064,17.0613083 Z M169.151484,33.6722483 C169.151484,42.7211631 176.483758,50.0556953 185.532673,50.0556953 L185.532673,50.0556953 C188.528467,50.0556953 191.333462,49.2478976 193.750081,47.8439892 L193.750081,47.8439892 C194.498606,49.1694323 195.91832,50.0669853 197.550286,50.0669853 L197.550286,50.0669853 C199.960696,50.0669853 201.915555,48.1109971 201.915555,45.7005875 L201.915555,45.7005875 L201.915555,34.3214218 L201.89862,34.3400503 C201.907652,34.1187668 201.915555,33.8963543 201.915555,33.6722483 L201.915555,33.6722483 C201.915555,24.6244625 194.582152,17.2899303 185.532673,17.2899303 L185.532673,17.2899303 C176.483758,17.2899303 169.151484,24.6244625 169.151484,33.6722483 L169.151484,33.6722483 Z M177.732429,33.6722483 C177.732429,29.3634294 181.224983,25.8708757 185.532673,25.8708757 L185.532673,25.8708757 C189.84262,25.8708757 193.33461,29.3634294 193.33461,33.6722483 L193.33461,33.6722483 C193.33461,37.9810672 189.84262,41.4736209 185.532673,41.4736209 L185.532673,41.4736209 C181.224983,41.4736209 177.732429,37.9810672 177.732429,33.6722483 L177.732429,33.6722483 Z" id="Clip-2"></path>
                </g>
            </g>
        </g>
    </g>
</svg>